<?xml version="1.0" encoding="utf-8"?>
<!-- Generator: Adobe Illustrator 16.0.0, SVG Export Plug-In . SVG Version: 6.00 Build 0)  -->
<!DOCTYPE svg PUBLIC "-//W3C//DTD SVG 1.1//EN" "http://www.w3.org/Graphics/SVG/1.1/DTD/svg11.dtd">
<svg version="1.1" id="Layer_1" xmlns="http://www.w3.org/2000/svg" xmlns:xlink="http://www.w3.org/1999/xlink" x="0px" y="0px"
	 width="124px" height="124px" viewBox="0 0 124 124" style="enable-background:new 0 0 124 124;" xml:space="preserve">
<style type="text/css">
<![CDATA[
	.st0{fill:none;stroke:#00BFA9;stroke-width:0.82;stroke-miterlimit:10;stroke-dasharray:3.2799,3.2799;}
	.st1{fill:none;stroke:#00BFA9;stroke-miterlimit:10;stroke-dasharray:4,4;}
	.st2{fill:#00BFA9;}
]]>
</style>
<line class="st1" x1="15.5" y1="32.239" x2="108.5" y2="32.239"/>
<line class="st0" x1="15.5" y1="91.758" x2="91.758" y2="91.758"/>
<line class="st1" x1="91.758" y1="15.5" x2="91.758" y2="108.5"/>
<line class="st1" x1="32.239" y1="15.5" x2="32.239" y2="108.5"/>
<path class="st2" d="M111.287,107.479l-5.251-5.25l3.745-2.163c0.293-0.171,0.464-0.491,0.438-0.828
	c-0.023-0.337-0.238-0.63-0.552-0.757l-16.701-6.66c-0.327-0.131-0.702-0.055-0.95,0.195c-0.249,0.249-0.326,0.622-0.196,0.95
	l6.661,16.701c0.124,0.315,0.419,0.53,0.757,0.554c0.337,0.025,0.657-0.146,0.827-0.438l2.161-3.745l5.252,5.252
	c0.164,0.162,0.39,0.257,0.622,0.257c0.233,0,0.459-0.095,0.623-0.257l2.563-2.563C111.631,108.383,111.631,107.822,111.287,107.479
	z M108.101,109.417l-5.438-5.439c-0.169-0.166-0.392-0.259-0.626-0.259c-0.037,0-0.075,0.004-0.113,0.009
	c-0.271,0.035-0.512,0.195-0.649,0.434l-1.828,3.166L94.22,94.221l13.105,5.229l-3.166,1.826c-0.236,0.139-0.398,0.377-0.433,0.65
	c-0.037,0.272,0.055,0.544,0.249,0.74l5.439,5.437L108.101,109.417z"/>
</svg>
