<?xml version="1.0" encoding="utf-8"?>
<!-- Generator: Adobe Illustrator 16.0.0, SVG Export Plug-In . SVG Version: 6.00 Build 0)  -->
<!DOCTYPE svg PUBLIC "-//W3C//DTD SVG 1.1//EN" "http://www.w3.org/Graphics/SVG/1.1/DTD/svg11.dtd">
<svg version="1.1" id="Layer_1" xmlns="http://www.w3.org/2000/svg" xmlns:xlink="http://www.w3.org/1999/xlink" x="0px" y="0px" width="426px" height="264px" viewBox="37 118 426 264" enable-background="new 37 118 426 264" xml:space="preserve">
    <g>
        <g>
            <g>
                <path fill="none" stroke="#FFFFFF" stroke-miterlimit="10" d="M257.584,192.535l23.804,2.265l15.229,18.432
				C286.461,200.94,272.289,193.93,257.584,192.535z" />
                <path display="none" fill="#FFFFFF" d="M203.438,191.086l24.402-20.163l31.515,2.998
				C239.886,172.063,219.71,177.641,203.438,191.086z" />
                <path fill="none" stroke="#FFFFFF" stroke-miterlimit="10" d="M288.886,294.5c12.291-10.155,19.302-24.327,20.696-39.033
				l-2.265,23.805L288.886,294.5z" />
                <path display="none" fill="#FFFFFF" d="M328.195,257.237c1.858-19.468-3.719-39.644-17.164-55.916l20.162,24.402L328.195,257.237
				z" />
                <path fill="#FFFFFF" d="M194.652,244.533l2.264-23.804l18.432-15.229C203.059,215.656,196.047,229.828,194.652,244.533z" />
                <path display="none" fill="#FFFFFF" d="M193.203,298.679l-20.163-24.402l2.998-31.514
				C174.181,262.23,179.758,282.406,193.203,298.679z" />
                <path fill="none" stroke="#FFFFFF" stroke-miterlimit="10" d="M222.847,305.2l-15.229-18.431
				c10.155,12.29,24.327,19.301,39.033,20.695L222.847,305.2z" />
                <path display="none" fill="#FFFFFF" d="M244.88,326.078c19.468,1.857,39.644-3.72,55.916-17.163l-24.403,20.162L244.88,326.078z" />
            </g>
            <circle fill="#FFFFFF" cx="252.115" cy="250" r="43.294" />
        </g>
        <g>
            <g>
                <path fill="none" stroke="#FFFFFF" stroke-miterlimit="10" d="M339.36,273.432l-9.706-21.853l8.588-22.314
				C332.515,244.144,333.359,259.935,339.36,273.432z" />
                <path display="none" fill="#FFFFFF" d="M364.664,321.322l-29.543-11.37l-12.849-28.931
				C330.205,298.896,344.963,313.74,364.664,321.322z" />
                <path fill="none" stroke="#FFFFFF" stroke-miterlimit="10" d="M412.85,196.127c-14.879-5.726-30.667-4.882-44.166,1.119
				l21.854-9.707L412.85,196.127z" />
                <path display="none" fill="#FFFFFF" d="M361.094,180.158c-17.876,7.932-32.719,22.691-40.303,42.391l11.372-29.543
				L361.094,180.158z" />
                <path fill="none" stroke="#FFFFFF" stroke-miterlimit="10" d="M415.547,302.754l-21.854,9.707l-22.315-8.588
				C386.259,309.6,402.049,308.756,415.547,302.754z" />
                <path display="none" fill="#FFFFFF" d="M463.438,277.453l-11.37,29.542l-28.933,12.849
				C441.012,311.91,455.855,297.151,463.438,277.453z" />
                <path fill="#FFFFFF" d="M454.576,248.422l-8.588,22.313c5.726-14.879,4.882-30.667-1.118-44.165L454.576,248.422z" />
                <path display="none" fill="#FFFFFF" d="M461.957,218.979c-7.933-17.875-22.691-32.719-42.391-40.301l29.543,11.372
				L461.957,218.979z" />
            </g>
            <g>
                <path fill="#FFFFFF" d="M392.115,221.707c15.602,0,28.294,12.692,28.294,28.294s-12.692,28.294-28.294,28.294
				s-28.294-12.692-28.294-28.294S376.514,221.707,392.115,221.707 M392.115,206.707c-23.91,0-43.294,19.384-43.294,43.294
				c0,23.911,19.384,43.294,43.294,43.294s43.294-19.383,43.294-43.294C435.409,226.091,416.025,206.707,392.115,206.707
				L392.115,206.707z" />
            </g>
        </g>
        <g>
            <g>
                <path fill="none" stroke="#FFFFFF" stroke-miterlimit="10" d="M72.158,290.809l-16.904-16.912l0.006-23.909
				C55.256,265.931,61.712,280.364,72.158,290.809z" />
                <path display="none" fill="none" stroke="#5CD6C8" stroke-miterlimit="10" d="M112.969,326.424l-31.655-0.007l-22.379-22.39
				C72.755,317.863,91.86,326.419,112.969,326.424z" />
                <path fill="none" stroke="#FFFFFF" stroke-miterlimit="10" d="M112.997,192.275c-15.943-0.004-30.377,6.452-40.82,16.898
				l16.911-16.904L112.997,192.275z" />
                <path display="none" fill="none" stroke="#5CD6C8" stroke-miterlimit="10" d="M58.958,195.949
				c-13.837,13.822-22.392,32.926-22.396,54.034l0.006-31.654L58.958,195.949z" />
                <path fill="#FFFFFF" d="M153.793,290.826l-16.912,16.904l-23.909-0.005C128.915,307.729,143.349,301.271,153.793,290.826z" />
                <path display="none" fill="none" stroke="#5CD6C8" stroke-miterlimit="10" d="M189.408,250.017l-0.007,31.655l-22.39,22.379
				C180.848,290.229,189.403,271.125,189.408,250.017z" />
                <path fill="none" stroke="#FFFFFF" stroke-miterlimit="10" d="M170.715,226.104l-0.005,23.908
				c0.002-15.942-6.453-30.375-16.899-40.82L170.715,226.104z" />
                <path display="none" fill="none" stroke="#5CD6C8" stroke-miterlimit="10" d="M167.035,195.974
				c-13.822-13.836-32.926-22.392-54.034-22.397l31.655,0.008L167.035,195.974z" />
            </g>
            <circle fill="#FFFFFF" cx="112.985" cy="250" r="43.294" />
        </g>
    </g>
</svg>
