<?xml version="1.0" encoding="utf-8"?>
<!-- Generator: Adobe Illustrator 16.0.0, SVG Export Plug-In . SVG Version: 6.00 Build 0)  -->
<!DOCTYPE svg PUBLIC "-//W3C//DTD SVG 1.1//EN" "http://www.w3.org/Graphics/SVG/1.1/DTD/svg11.dtd">
<svg version="1.1" id="Layer_1" xmlns="http://www.w3.org/2000/svg" xmlns:xlink="http://www.w3.org/1999/xlink" x="0px" y="0px"
	 width="21px" height="21px" viewBox="0 0 21 21" style="enable-background:new 0 0 21 21;" xml:space="preserve">
<style type="text/css">
<![CDATA[
	.st0{fill-rule:evenodd;clip-rule:evenodd;fill:#FFFFFF;}
]]>
</style>
<path class="st0" d="M10.5,0.317C4.734,0.317,0.06,4.993,0.06,10.759c0,4.613,2.991,8.526,7.14,9.906
	c0.522,0.095,0.712-0.227,0.712-0.503c0-0.248-0.009-0.905-0.014-1.776c-2.904,0.631-3.518-1.399-3.518-1.399
	c-0.475-1.205-1.159-1.527-1.159-1.527c-0.948-0.647,0.072-0.635,0.072-0.635C4.342,14.898,4.893,15.9,4.893,15.9
	c0.932,1.596,2.444,1.134,3.038,0.868c0.095-0.675,0.365-1.136,0.664-1.396c-2.318-0.265-4.755-1.159-4.755-5.16
	c0-1.14,0.407-2.072,1.074-2.802C4.806,7.147,4.448,6.086,5.016,4.649c0,0,0.876-0.282,2.871,1.07
	C8.72,5.487,9.612,5.371,10.5,5.367c0.886,0.004,1.78,0.12,2.615,0.352c1.992-1.352,2.868-1.07,2.868-1.07
	c0.569,1.437,0.211,2.498,0.104,2.762c0.668,0.73,1.072,1.662,1.072,2.802c0,4.011-2.44,4.893-4.766,5.151
	c0.374,0.323,0.708,0.959,0.708,1.934c0,1.396-0.013,2.521-0.013,2.864c0,0.278,0.188,0.604,0.718,0.502
	c4.146-1.383,7.133-5.294,7.133-9.905C20.939,4.993,16.266,0.317,10.5,0.317z"/>
</svg>
