<svg id="Layer_1" xmlns="http://www.w3.org/2000/svg" width="300" height="300" viewBox="100 100 300 300">
  <g id="q-light">
    <path class="st0" d="M182.272 191.579l-6.577 8.733c.108.11.216.221.325.33l6.421-7.665a665.8 665.8 0 0 0-.169-1.398zM184.553 189.44l.168 1.392c1.581-.888 3.163-1.776 4.743-2.665l-4.911 1.273zM214.702 127.466a44.318 44.318 0 0 1 4.387-1.411l-.286-6.281-4.101 7.692zM198.303 117.469l-5.559 1.252a76.8 76.8 0 0 0-3.564 2.593l6.656.673 2.467-4.518zM195.061 185.039l7.088-12.421-2.033-1.764c-1.685 4.728-3.369 9.457-5.055 14.185zM194.35 185.141l5.067-14.218-8.152 14.84 3.085-.622zM217.239 173.367l-3.021-5.555.982 6.071 2.039-.516zM227.461 354.036l-1.876-2.19-1.225 5 3.101-2.81zM247.792 279.653c1.238-1.874 2.476-3.748 3.712-5.622l-2.088-1.58-1.624 7.202zM228.259 178.318c-.218-3.939-1.135-7.512-2.754-10.719l-5.522 6.26 8.276 4.459zM235.243 279.654a99.743 99.743 0 0 0-.203 2.188l4.415-.92-4.212-1.268zM234.993 282.422c-.04.522-.079 1.045-.112 1.572l4.582-2.503-4.47.931zM239.752 281.566l-4.887 2.669c-.008.114-.014.229-.021.344l6.213.398a2380.13 2380.13 0 0 0-1.305-3.411zM247.819 288.21l.482-3.661-.681 3.678.199-.017zM245.916 295.473l2.9-3.275-1.347-2.401-1.553 5.676zM249.468 112.223l-1.892 2.044-1.887 5.026 3.779-7.07zM248.28 280.501l4.475 2.12c.2-1.146.425-2.254.671-3.325-.472-1.48-.944-2.961-1.418-4.441l-3.728 5.646zM253.994 262.176c-1.87-.449-3.74-.897-5.609-1.347l2.781 2.672 2.828-1.325zM260.245 224.842l-2.663-.843c-.122.244-.241.486-.365.731l1.885 4.025 1.143-3.913zM263.153 253.071l-6.745 7.611 3.843-1.088 2.902-6.523zM262.767 257.802l1.145-4.948-2.906 6.532 1.761-1.584zM259.902 264.373c.285-.404.581-.808.885-1.211-.662-.016-1.325-.03-1.988-.047l1.103 1.258zM265.162 237.979l-4.85-6.861.273 5.663 4.577 1.198zM260.364 243.06l3.674 7.088 1.477-3.57-5.151-3.518zM264.368 257.558l1.288.047a68.595 68.595 0 0 1 2.806-2.652l-2.945-2.366-1.149 4.971zM268.181 249.976l2.079 3.417a83.346 83.346 0 0 1 2.264-1.834l-.052-1.981-4.291.398zM294.61 227.117l.765-.115.72-4.891c-.494 1.669-.99 3.337-1.485 5.006zM274.975 220.754l1.582 5.602 4.648-6.283-6.23.681zM276.842 226.474l2.859.638 1.794-6.927-4.653 6.289zM282.394 244.685l1.119-.73a180.11 180.11 0 0 1-.591-.164l-.528.894zM283.299 220.177l4.462 7.091.992-1.068-5.454-6.023zM286.715 168.857l11.438-.274 3.859-11.609-15.297 11.883zM283.136 213.096l8.493.47-8.641-1.914.148 1.444zM298.215 224.008c.119.022.24.043.359.066l-1.911-2.407 1.552 2.341zM289.445 240.068c1.087-.73 2.151-1.456 3.19-2.177l-3.642.749c.152.476.303.951.452 1.428zM293.897 214.464l-.265 3.495 5.422-.606-5.157-2.889zM313.549 205.556l3.202 7.262c1.24-1.891 2.481-3.781 3.723-5.672l-6.925-1.59zM311.371 203.231a863.7 863.7 0 0 1 .358-1.548l-8.593-6.986 8.235 8.534zM312.41 216.751l3.712-3.438-3.188-7.229-.524 10.667zM312.367 187.278l-1.146 5.683 6.825-4.035a9406.74 9406.74 0 0 1-5.679-1.648zM321.201 197.07l-9.573-2.354 2.129 6.808 7.444-4.454zM313.485 219.441l.85.841a79.166 79.166 0 0 0 3.21-3.416c.021-.022.04-.045.059-.067l-.404-.798c-1.238 1.147-2.475 2.294-3.715 3.44z"/>
  </g>
  <g id="q-dark">
    <path class="st1" d="M259.294 238.169l-2.081-.403 1.801 3.206.28-2.803zM183.812 125.882a65.52 65.52 0 0 0-4.629 4.815l8.874 3.537-4.245-8.352zM171.631 141.706c-2.359 4.48-4.1 9.26-5.223 14.336l25.951 3.101-20.728-17.437zM189.258 195.338l8.514-4.343-3.819-2.942c-1.565 2.428-3.129 4.857-4.695 7.285zM201.055 189.734l-6.093-2.303 3.813 2.937 2.28-.634zM200.979 168.753l3.305.654-2.343-2.303-.962 1.649zM203.584 171.652l3.26 4.801-2.01-5.914-1.25 1.113zM205.825 178.689l-10.274 7.563 6.109 2.309 4.165-9.872zM214.769 356.921a28.98 28.98 0 0 0-1.417 5.824c.985.923 1.97 1.847 2.956 2.769l-1.539-8.593zM213.927 173.894l-.986-6.093-7.089 2.163 8.075 3.93zM200.413 192.538l9.15 11.892-6.904-12.516-2.246.624zM193.683 206.539l14.998-1.734-9.171-11.919-5.827 13.653zM211.986 166.345l-13.622-4.593 4.108 4.467 9.514.126zM223.513 358.24l-5.392 7.75 6.149-6.385-.757-1.365zM215.155 175.712l-1.311 7.099 3.332-7.609c-.674.169-1.348.34-2.021.51zM223.188 357.763l-6.981-4.163c-.132.259-.26.517-.385.778l1.99 11.111 5.376-7.726zM244.272 285.514l3.532-1.684-.962-2.2-2.57 3.884zM220.369 347.521a31.31 31.31 0 0 0-1.194 1.441l2.179-.724c-.329-.239-.657-.476-.985-.717zM225.108 348.951l-.893-5.156c-.427.351-.849.715-1.264 1.094l.173 2.399 1.984 1.663zM221.844 162.222c-1.21-1.383-2.623-2.757-4.243-4.12l-2.215 6.572 6.458-2.452zM257.511 233.506l-1.646 2.051.892.935c.25-.995.502-1.991.754-2.986zM241.734 254.101l-.017.036.02.072-.003-.108zM240.321 261.468l-.996.716 2.025 1.835c-.342-.851-.685-1.701-1.029-2.551zM238.983 262.319l-.484.465c-.128.425-.254.853-.375 1.282.963.029 1.925.06 2.888.091l-2.029-1.838zM253.917 277.329c.12-.448.245-.89.375-1.323-.389-.384-.776-.77-1.166-1.153l.791 2.476zM276.593 215.971l.133-2.743c-.815 1.875-1.632 3.748-2.446 5.622l2.313-2.879zM241.599 259.806l-.306.983 5.026-.482c-1.573-.168-3.147-.335-4.72-.501zM246.326 260.895l-5.04.483 1.027 2.545c1.337-1.01 2.675-2.02 4.013-3.028zM243.179 119.415l1.996-4.942-22.896 2.702 20.9 2.24zM250.777 264.996l-2.013 4.379.687.796 1.326-5.175zM255.652 227.758a216.253 216.253 0 0 1-2.263 4.183l2.94-.33a5179.46 5179.46 0 0 0-.677-3.853zM246.499 295.874c1.69-.688 3.38-1.373 5.071-2.06.013-.273.026-.548.041-.819l-2.206-.403-2.906 3.282zM249.7 291.758l1.963.359c.015-.24.031-.478.048-.715l-3.155-2.057 1.144 2.413zM250.682 236.758c-.318.575-.628 1.139-.931 1.691l3.526.157-2.595-1.848zM252.452 352.414l-24.929 8.211 24.341 23.108.588-31.319zM255.588 236.314l-.591 2.544 1.479-1.612-.888-.932zM252.417 349.352l-1.705-2.195-20.265 6.08 21.97-3.885zM276.153 236.541l-4.311 3.116 3.509.457.802-3.573zM258.874 229.196l-1.884-4.022c-.07.139-.143.279-.214.418l1.03 5.858c.357-.751.714-1.502 1.068-2.254zM261.396 261.592l.606.033c.467-.569.954-1.137 1.46-1.702l-.55-.93-1.516 2.599zM260.59 238.244l-.282 2.82 4.846-1.624-4.564-1.196zM265.512 245.529l-.297-5.138-4.847 1.625 5.144 3.513zM265.835 146.953a48.395 48.395 0 0 1 1.472 3.438l2.88-6.451-4.352 3.013zM260.541 343.016a28.369 28.369 0 0 0-5.571-3.281l-.588 3.692c2.053-.137 4.105-.275 6.159-.411zM261.9 214.715a169.117 169.117 0 0 1-2.628 5.817l6.523-1.345a8309.292 8309.292 0 0 0-3.895-4.472zM271.793 143.925c-1.257 2.817-2.516 5.634-3.772 8.451l.018.053c1.27-2.825 2.538-5.651 3.807-8.477l-.053-.027zM266.823 240.371l.299 5.179 3.208-4.596-3.507-.583zM252.076 107.172l-.115 6.246 19.181 23.952-19.066-30.198zM268.15 248.11l4.274-.397-.608-2.315-3.666 2.712zM273.761 247.643l3.274-.217-3.887-2.112.613 2.329zM265.739 252.178l3.069 2.467a73.43 73.43 0 0 1 1.159-1.005c-.727-1.193-1.452-2.388-2.179-3.582l-2.049 2.12zM276.946 236.534l-.805 3.587c.482-.733.966-1.466 1.447-2.199-.213-.463-.428-.926-.642-1.388zM280.746 209.191c.222.466.442.932.665 1.397l-.223-4.326-.442 2.929zM280.548 209.094l.442-2.927-1.374 3.762.932-.835zM278.954 209.269l1.376-3.765-5.248-3.873 3.872 7.638zM281.004 227.151l6.258.108-4.453-7.075-1.805 6.967zM279.022 237.513l6.981-1.081-7.63-.318c.218.467.434.932.649 1.399zM296.484 222.087c-.241 1.633-.481 3.267-.723 4.9.758-.854 1.514-1.709 2.271-2.564l-1.548-2.336zM292.027 214.481l-6.261 3.201 5.938.279c.109-1.159.216-2.319.323-3.48zM291.964 214.434l-6.628 2.281.368.919 6.26-3.2zM282.94 210.92l8.661 1.918-8.885-6.264.224 4.346zM292.774 217.955l.264-3.481-.322 3.496a.618.618 0 0 1 .058-.015zM301.427 191.249c-1.103-.258-2.205-.517-3.308-.774l3.265 2.574c.013-.601.028-1.2.043-1.8zM304.845 159.693l-.235-.079c-1.599 3.088-3.197 6.177-4.798 9.265l5.033-9.186zM305.354 158.199l-1.169-2.49.932 2.41.237.08zM330.39 196.171c.082-.203.166-.405.244-.609a66.606 66.606 0 0 0 2.273-6.963c-2.898 2.054-5.798 4.107-8.695 6.161 2.059.469 4.118.94 6.178 1.411zM300.473 225.751l2.716 4.356a143.578 143.578 0 0 0 6.701-5.618l.387-3.378c-3.268 1.548-6.537 3.094-9.804 4.64zM310.382 205.674l-13.815-2.302 4.779 12.153 9.036-9.851zM300.456 223.623l9.837-4.655-8.479-.695c-.454 1.784-.906 3.567-1.358 5.35zM311.87 222.677l.385-.364-.209-1.174-.176 1.538zM313.538 204.501l6.945 1.595-6.583-3.153a875.52 875.52 0 0 0-.362 1.558zM320.984 133.271l-.69-3.576-.212-.246-12.164 18.609 13.066-14.787zM318.636 215.604l.004-.004-.039-.032.035.036zM324.702 207.327l.143-.226-.292.099.149.127z"/>
  </g>
  <g id="q-accent2">
    <path class="st3" d="M165.183 176.673c.37 3.516 1.075 6.801 2.113 9.855l12.511.337-14.624-10.192zM189.193 197.764l2.667 8.83 5.873-13.762-8.54 4.932zM205.848 177.669l-3.252-4.79-7.068 12.387 10.32-7.597zM203.951 189.619l13.255 2.284-4.499-6.92c-2.919 1.544-5.838 3.09-8.756 4.636zM198.852 123.687l5.013 9.585a66.394 66.394 0 0 1 2.475-1.625 48.117 48.117 0 0 1 6.854-3.576l4.615-8.656-18.957 4.272zM218.731 369.139l-4.924 4.901c1.058 4.582 3.23 8.756 6.519 12.517 8.37 2.686 16.739 5.369 25.108 8.054-8.9-8.492-17.802-16.982-26.703-25.472zM249.717 345.052l-12.521-7.28c-3.8.68-7.297 2.075-10.491 4.184l1.204 6.953c7.27-1.287 14.539-2.572 21.808-3.857zM255.858 384.956l9.602 1.736a29.34 29.34 0 0 0 3.936-5.731l1.889-19.083-15.427 23.078zM310.618 216.703l.52-10.573-9.057 9.874 8.537.699zM300.101 153.407l-23.727-9.646c3.016 7.872 6.029 15.743 9.044 23.615l14.683-13.969zM310.23 148.775l21.684 1.402a58.393 58.393 0 0 0-7.948-15.815l-.596-.457-13.14 14.87z"/>
  </g>
  <g id="q-accent">
    <path class="st5" d="M187.192 198.622l-5.22 6.675a28.28 28.28 0 0 0 5.376 2.479l2.528-.265-2.684-8.889zM242.752 105.281l-40.464 7.865a79.183 79.183 0 0 0-6.657 3.695l5.005-.539 42.116-11.021zM187.52 196.531l.082-.626-3.081-4.047 2.999 4.673zM168.746 190.178a36.455 36.455 0 0 0 1.707 3.279l9.137-2.986-10.844-.293zM171.076 194.476a35.647 35.647 0 0 0 3.067 4.144c.125.146.253.289.38.432l5.697-7.565-9.144 2.989zM222.358 349.954l-5.038 1.672c-.234.38-.458.762-.673 1.148l6.509 3.882-.798-6.702zM191.979 163.359l-26.344-3.148a69.227 69.227 0 0 0-.749 9.184l16.883 16.719 10.21-22.755zM172.442 140.545l21.673 18.233-5.658-20.979-16.015 2.746zM201.218 166.427l-4.121-4.481 3.152 6.14.969-1.659zM259.297 236.981l-1.33-3.394-.758 2.99 2.088.404zM194.433 117.598c-.203.131-.405.264-.607.397l2.819-.636-2.212.239zM245.371 119.42l.11.083c.627-1.673 1.256-3.345 1.884-5.018l-1.994 4.935zM195.517 131.582l5.071 4.155a42.292 42.292 0 0 1 2.092-1.624c-1.738-3.321-3.474-6.643-5.211-9.965-.652 2.478-1.302 4.956-1.952 7.434zM196.881 158.673l5.043-9.549-.745-.281c-4.079-1.528-6.114-3.12-6.114-4.776 0-1.329.522-2.737 1.565-4.225l-5.351-1.938 5.602 20.769zM249.803 104.71l-2.025 8.405 1.908-2.061.117-6.344zM221.493 346.306c-.112.115-.225.231-.335.348.131.149.262.299.394.447-.021-.265-.04-.531-.059-.795zM213.052 367.202v.029c0 .608.019 1.211.052 1.808l2.966-1.589-3.018-.248zM193.748 209.177l.04.02c1.284.144 2.601.219 3.953.219 3.837 0 7.39-.534 10.657-1.603l.219-.354-14.869 1.718zM207.376 178.717l-4.141 9.816 8.821-4.671-4.68-5.145zM205.381 169.404l7.119-2.171-9.454-.125 2.335 2.296zM211.995 205.4l.769.575a28.899 28.899 0 0 0 5.14-3.428l.298-7.253-6.207 10.106zM245.464 113.385l2.023-8.397-25.091 11.12 23.068-2.723zM210.883 204.397l6.258-10.19-13.126-2.261 6.868 12.451zM247.023 289.468l-2.884-2.001 1.333 7.668 1.551-5.667zM198.746 121.969l19.168-4.32-16.722-.163-2.446 4.483zM225.105 358.604l2.361-4.172-3.11 2.818c.249.452.498.903.749 1.354zM218.984 191.883l2.977-1.222-7.45-5.66 4.473 6.882zM254.305 236.066l-2.909-.598-.59 1.065 2.91 2.072.589-2.539zM218.493 172.659l6.024-6.829a24.32 24.32 0 0 0-.408-.649 24.03 24.03 0 0 0-.75-1.076l-7.89 2.995 3.024 5.559zM240.489 259.941l-1.301 1.701.994-.715c.103-.327.205-.657.307-.986zM240.481 259.564l-.612-.897c-.24.652-.47 1.312-.692 1.977l.005.62 1.299-1.7zM241.038 125.776c.576.141 1.144.293 1.705.458l.19-2.429-1.895 1.971zM237.166 267.805a82.289 82.289 0 0 0-.732 3.52 97.435 97.435 0 0 0-.371 2.132l3.286.238-2.183-5.89zM244.756 126.896l.038.014.202-3.075-.24 3.061zM241.101 287.372c-2.125-.136-4.251-.271-6.375-.408a133.64 133.64 0 0 0-.107 5.379c0 1.661.011 3.064.036 4.21l.094 2.273 6.352-11.454zM241.578 287.445c-2.117 3.817-4.234 7.636-6.352 11.452l8.77-3.286c-.807-2.721-1.613-5.443-2.418-8.166zM243.701 287.389l-1.076-.467 2.409 8.134-1.333-7.667zM241.342 280.211l4.904-.017-4.904-4.284v4.301zM249.719 270.469c.69.521 1.378 1.043 2.069 1.564l-.741-6.747-1.328 5.183zM242.424 255.649l-.757 3.395 4.704.499-3.947-3.894zM247.449 270.734c-1.931 1.242-3.862 2.483-5.792 3.726l6.484-2.923c-.231-.266-.461-.535-.692-.803zM241.642 275.385l4.889 4.271 1.625-7.207c-2.171.979-4.343 1.956-6.514 2.936zM247.729 289.255l1.343 2.393-1.143-2.409c-.068.004-.134.011-.2.016zM247.81 284.548c-1.182.564-2.363 1.128-3.544 1.69l2.864 1.988.68-3.678zM227.703 104.999c-5.167.925-10.068 2.168-14.704 3.731l22.335-3.731h-7.631zM250.289 347.154l-22.131 3.914c.619.723 1.24 1.445 1.859 2.17 6.757-2.028 13.515-4.055 20.272-6.084zM251.694 265.038l.74 6.74 2.109-8.075c-.948.445-1.899.891-2.849 1.335zM251.753 290.807c.088-1.162.194-2.293.318-3.396l-3.268 1.474c.984.639 1.967 1.28 2.95 1.922zM248.814 288.207l3.339-1.506c.067-.56.14-1.112.217-1.656l-3.073-.498-.483 3.66zM251.461 386.198l-31.116-17.033 26.646 25.418 4.47-8.385zM252.578 244.91l-4.153 13.017 5.529 1.328-1.376-14.345zM220.533 367.849l30.74 16.827-24.523-23.282-6.217 6.455zM250.627 396.063c4.622-1.186 8.768-3.486 12.436-6.9l-7.987-1.445-4.449 8.345zM230.11 353.992l-2.344 4.144 24.443-8.051-22.099 3.907zM252.946 271.753l4.094-8.216-1.982.139-2.112 8.077zM255.146 239.77l-1.09 1.833 4.362-.248-3.272-1.585zM267.1 200.584c-.11.365-.225.732-.34 1.099l2.193-.312-1.853-.787zM295.824 228.4l2.193 5.648.159-.117.273-8.024-2.625 2.493zM296.34 187.835l1.187-15.495-11.207.269c3.339 5.075 6.679 10.151 10.02 15.226zM255.964 348.793l8.188-2.599-.221-.225-.007-.008-9.659.645 1.699 2.187zM263.285 211.371c-.389.968-.79 1.941-1.206 2.922l3.902 4.479-2.696-7.401zM265.762 220.96l-7.435 1.533-.153.318 2.971.941 4.617-2.792zM266.78 202.944l-.836 1.239c-.204.605-.415 1.213-.632 1.824l3.803-3.395-2.335.332zM247.793 123.834l-.275 4.192c4.899 2.261 9.167 5.632 12.8 10.116a43.043 43.043 0 0 1 3.945 5.792l5.976-3.526-22.446-16.574zM271.958 233.877l-10.542-2.777 4.874 6.896 5.668-4.119zM272.56 224.82l.394-4.179-4.74.411 4.346 3.768zM274.022 234.518l-2.181 4.742 4.313-3.117-2.132-1.625zM277.035 246.822a9515.76 9515.76 0 0 1-1.381-5.063l-2.504 2.951c1.294.705 2.589 1.409 3.885 2.112zM262.511 225.048l-1.148 3.937 10.484-.929-9.336-3.008zM272.074 227.878l-.41-2.063-8.938-.949 9.348 3.012zM282.501 218.196l1.385-1.469a4366.88 4366.88 0 0 0-1.843-2.732l.458 4.201zM274.421 194.482l-3.746 6.252 3.102-1.087.644-5.165zM273.335 194.489l-5.003 1.734a115.243 115.243 0 0 1-.988 3.547l2.254.957 3.737-6.238zM281.273 211.479l-1.592-.56 1.739 1.996-.147-1.436zM275.631 227.371l-1.965-1.381.414 2.078 1.551-.697zM274.059 220.89l-.396 4.193 1.971 1.385c-.526-1.859-1.05-3.718-1.575-5.578zM270.965 202.937l5.282 7.751-2.209-8.829-3.073 1.078zM277.074 215.459l.507-1.418-.374-1.335-.133 2.753zM280.586 209.693l-.931.833 1.594.561-.663-1.394zM290.305 226.307l3.463.661c-.174-1.933-.346-3.866-.519-5.8-.981 1.713-1.964 3.426-2.944 5.139zM282.87 206.062l8.906 6.279c.33-3.106.66-6.212.988-9.318l-9.894 3.039zM281.184 214.001l-3.5 1.985 3.956 2.203-.456-4.188zM295.823 227.378l2.628-2.497-.358-.065-2.27 2.562zM296.792 221.227l1.915 2.41.793-5.072-2.708 2.662zM285.363 242.756l1.036-.667c.565-.37 1.123-.739 1.677-1.106l-.643-2.034a3562.42 3562.42 0 0 1-2.07 3.807zM279.166 238.55l3.636 4.27 3.484-4.033-7.12-.237zM277.774 194.004l14.685 6.096 2.439-8.634-17.124 2.538zM285.045 219.334l-1.748.555 5.458 6.029-3.71-6.584zM292.414 219.639l-2.198 6.349 2.945-5.14-.747-1.209zM292.032 200.985l-14.608-6.064 4.662 9.118 9.946-3.054zM289.141 228.33l4.45-.413-3.454-.659-.996 1.072zM288.97 237.804l5.367-1.104c.228-.16.456-.32.681-.48l-6.188.247.14 1.337zM294.885 228.939l2.81 5.347c.02-.014.038-.029.059-.043l-2.104-5.418-.765.114zM299.049 218.168l-5.411.605 2.708 2.053 2.703-2.658zM310.641 187.299l-7.624 3.579 6.485 2.062 1.139-5.641zM295.013 203.417l-.997 9.392 5.741 2.673-4.744-12.065zM305.455 157.682l.804-6.759c-.659 1.42-1.317 2.841-1.978 4.262l1.174 2.497zM297.745 191.421l-2.465 8.724 5.712-6.164-3.247-2.56zM298.079 187.917l3.193.268-2-15.852-1.193 15.584zM302.855 191.396c-.016.603-.029 1.206-.044 1.809l6.512.248-6.468-2.057zM304.583 159.298c-.309-.797-.616-1.594-.926-2.391-1.292 3.891-2.586 7.78-3.879 11.67l4.805-9.279zM300.908 231.881c.594-.455 1.181-.908 1.755-1.358l-2.498-4.008.743 5.366zM277.681 139.479l39.391-11.035-39.445 11.006.054.029zM313.577 182.745l-12.686-10.9 9.88 12.883c.935-.662 1.871-1.322 2.806-1.983zM300.848 170.325c4.258 3.659 8.516 7.316 12.773 10.976l-7.759-20.129-5.014 9.153zM324.226 196.89l5.524.827c.074-.173.149-.344.222-.517l-5.738-1.312c-.004.334-.005.668-.008 1.002zM322.188 194.248l-1.932-9.348-.883 3.903c.939 1.814 1.877 3.629 2.815 5.445zM317.319 212.993l4.466-6.125-.734.438c-1.243 1.896-2.488 3.792-3.732 5.687zM321.212 196.441l.008-.988-9.601-1.37 9.593 2.358zM322.341 205.043l.1-7.205-.84 7.646.74-.441zM318.326 215.963a.002.002 0 0 0 .002-.002l-.005-.005a.01.01 0 0 1 .003.007zM333.892 184.338c.043-.222.089-.444.131-.667l-11.949.054 11.818.613zM334.05 183.511l.068-.389-11.959.442 11.891-.053zM285.322 107.584a94.144 94.144 0 0 0-7.472-1.963l-18.854-.89 26.326 2.853z"/>
  </g>
  <g id="q-sec">
    <path class="st2" d="M255.075 387.718l7.987 1.445a32.88 32.88 0 0 0 2.397-2.471l-9.602-1.736 15.426-23.078-1.889 19.083c1.568-3.007 2.563-6.259 2.987-9.756l.132-1.334c.067-.866.104-1.745.104-2.64 0-6.378-1.68-12.007-5.033-16.887l3.532 7.716c-4.793-2.762-9.588-5.522-14.381-8.285l8.308-2.637a32.878 32.878 0 0 0-.893-.944c-2.729.866-5.459 1.731-8.188 2.599l-1.699-2.187 9.659-.645a32.174 32.174 0 0 0-3.383-2.946l-6.159.411.588-3.692a27.69 27.69 0 0 0-4.094-1.438l-.818 5.131-10.321-6.001c-.861.08-1.708.196-2.54.346l12.521 7.28-21.808 3.856-1.204-6.953a29.941 29.941 0 0 0-2.49 1.84l.893 5.156-1.983-1.663-.173-2.399c-.41.375-.814.762-1.213 1.163l-.245.254.058.795-.394-.447a33.54 33.54 0 0 0-.315.342l.479.544-.587-.428a33.62 33.62 0 0 0-.365.41l.985.718c-.727.24-1.453.481-2.179.724a29.776 29.776 0 0 0-1.854 2.663l5.038-1.672.798 6.702-6.509-3.882c-.151.273-.299.548-.441.825l6.981 4.163-5.376 7.727-1.99-11.111c-.393.83-.744 1.678-1.053 2.543l1.539 8.593-2.955-2.769c-.021.149-.039.3-.057.45l2.718 2.546-2.917-.24a35.321 35.321 0 0 0-.044 1.701l3.019.248-2.966 1.589c.01.186.021.37.035.555l2.966-1.588-2.848 2.835c.125 1.088.31 2.153.551 3.199l4.924-4.901c8.901 8.49 17.803 16.98 26.704 25.472-8.369-2.685-16.739-5.368-25.109-8.054a34.924 34.924 0 0 0 2.661 2.727c6.849 2.196 13.696 4.394 20.545 6.589l-12.104-1.086a27.33 27.33 0 0 0 3.205 1.124l6.436.578-4.043-.011c1.866.356 3.803.536 5.81.536 2.733 0 5.33-.318 7.792-.951 1.478-2.782 2.962-5.564 4.444-8.346zm1.442-35.313l14.698 8.467-15.287 22.87.589-31.337zm-4.1-3.053l-21.97 3.885 20.265-6.08c.568.731 1.137 1.462 1.705 2.195zm-2.128-2.198l-20.272 6.084c-.619-.725-1.24-1.447-1.859-2.17l22.131-3.914zm-20.179 6.838l22.099-3.907-24.443 8.051 2.344-4.144zm22.342-1.578l-.588 31.319-24.341-23.108 24.929-8.211zm-1.179 32.262l-30.74-16.827 6.217-6.455 24.523 23.282zm-26.168-26.072l-.75-1.354c1.037-.938 2.074-1.879 3.11-2.818l-2.36 4.172zm2.356-4.568l-3.101 2.81 1.225-5 1.876 2.19zm-2.182-2.382l-1.224 4.995-.796-6.689 2.02 1.694zm-7.158 14.336l5.392-7.75.757 1.365-6.149 6.385zm2.224 3.175l31.116 17.033-4.469 8.385-26.647-25.418zM176.131 200.751a32.07 32.07 0 0 0 2.968 2.597l3.338-10.125-6.306 7.528zM183.827 193.276l-3.594 10.898c.373.259.75.508 1.131.748l5.458-6.979-2.995-4.667zM178.622 131.355a59.476 59.476 0 0 0-4.507 6.096l13.845-2.375c-3.113-1.239-6.226-2.48-9.338-3.721zM184.751 191.397l3.082 4.049 1.65-6.709-4.732 2.66zM195.559 123.068l-7.63-.771a74.996 74.996 0 0 0-1.992 1.667l7.646 6.629 1.976-7.525zM190.348 188.662l-1.644 6.685 4.706-7.302-3.062.617zM190.161 185.176l5.07-21.068-10.028 22.354c1.652-.43 3.304-.858 4.958-1.286zM189.255 195.847l-.081.621 8.578-4.955-8.497 4.334zM199.432 170.072l-3.131-6.099-5.053 20.995c2.729-4.965 5.457-9.93 8.184-14.896zM225.533 192.941c.158-.324.306-.652.45-.983l-1.002.422.552.561zM212.06 164.415l-3.42-12.451c-1.311-.649-2.999-1.382-5.064-2.199l-5.285 10.007 13.769 4.643z"/>
    <path class="st2" d="M213.139 369.594c.031.419.07.834.118 1.247l2.848-2.835-2.966 1.588zM212.861 182.895l1.314-7.117-6.004 1.961 4.69 5.156zM219.606 195.123l-.252 6.134c.088-.083.177-.165.264-.25a31.952 31.952 0 0 0 1.713-1.793l1.204-5.292-2.929 1.201zM220.842 346.995l-.108.116.587.428-.479-.544zM225.279 351.654l-2.02-1.694.796 6.689 1.224-4.995zM221.986 189.347l-4.187-13.262-3.312 7.565 7.499 5.697zM222.85 197.346c.459-.617.891-1.246 1.292-1.888l-.547-1.391a5001.33 5001.33 0 0 1-.745 3.279zM242.907 122.31l-3.046 3.196.131.028 3.023-3.142-.108-.082zM224.24 189.311l3.107-1.307c.613-2.347.934-4.831.961-7.448l-8.233-4.436 4.165 13.191zM235.779 275.297a100.25 100.25 0 0 0-.32 2.412 2529.74 2529.74 0 0 1 3.916-2.15l-3.596-.262zM241.371 254.921l-.033.077.046-.032a.59.59 0 0 0-.013-.045zM241.027 265.918l-3.374-.106c-.065.252-.13.504-.192.757l2.637 7.12.929-7.771zM249.843 263.57l-2.784-2.675-4.009 3.026 6.793-.351zM258.226 261.815l2.148.05-.254-1.006-1.894.956zM255.37 239.382l3.277 1.587-1.798-3.201-1.479 1.614zM235.192 300.362l1.403.702 7.433-4.014c-2.945 1.104-5.89 2.209-8.836 3.312zM275.26 212.775l-10.488-2.958 3.271 8.977 7.217-6.019zM237.522 301.193l11.85.813-4.417-4.825-7.433 4.012zM242.628 284.972l3.635-3.422-4.938.017 1.303 3.405zM246.493 258.865l-3.806-6.837-.203.434.075 2.523 3.934 3.88zM259.18 230.888c-.353.747-.706 1.494-1.061 2.241l1.334 3.401-.273-5.642zM206.743 111.101a83.697 83.697 0 0 0-3.658 1.653l38.208-7.426c-11.516 1.923-23.033 3.848-34.55 5.773zM241.541 273.701l5.771-3.711-4.845-4.042a20466.6 20466.6 0 0 0-.926 7.753zM222.986 389.284c2.596 2.387 5.41 4.221 8.441 5.503l12.104 1.086c-6.848-2.195-13.696-4.393-20.545-6.589zM250.888 301.573l.546-1.937c.002-1.69.035-3.332.098-4.924l-5.048 2.05a6594.1 6594.1 0 0 0 4.404 4.811zM275.707 228.334l-1.549.695.121 3.748 1.428-4.443zM249.225 283.693c1.088.178 2.177.354 3.267.531.034-.226.069-.45.105-.674l-4.333-2.054c.319.733.64 1.466.961 2.197zM273.416 218.916l2.437-5.604-7.216 6.018 4.779-.414zM267.375 245.667l4.212-1.22-1-3.382-3.212 4.602zM250.876 338.296c-2.536-.675-5.216-1.013-8.042-1.013-1.053 0-2.085.048-3.098.143l10.321 6.001c.274-1.71.547-3.42.819-5.131zM255.829 261.968l1.967-.137 1.893-.954c-1.288.363-2.573.727-3.86 1.091zM271.97 232.889l-.118-3.709-10.448.926 10.566 2.783zM264.883 250.865l2.035-2.105-.552-1.483-1.483 3.588zM254.792 243.328l8.041 6.802-3.655-7.051-4.386.249zM261.032 261.559c.504-.866 1.009-1.731 1.515-2.597l-1.77 1.591.255 1.006zM256.152 259.282l6.701-7.563-8.082-6.837 1.381 14.4zM253.932 271.757l2.07-.494c.131-.302.263-.601.399-.895a38.067 38.067 0 0 1 3-5.271l-1.373-1.563c-1.366 2.74-2.731 5.482-4.096 8.223zM254.712 274.665c.124-.376.253-.744.385-1.109l-1.213.29.828.819zM270.676 137.994c-6.361-7.945-12.724-15.891-19.087-23.835l-3.733 6.983 22.82 16.852zM265.178 145.617c.063.123.123.247.186.371l4.705-3.257c-1.631.961-3.261 1.924-4.891 2.886zM267.239 238.664l3.518.584 2.17-4.717c-1.896 1.377-3.792 2.754-5.688 4.133zM270.04 203.136l-5.313 4.743 10.577 2.982-5.264-7.725zM279.462 211.019l-1.269 2.562 3.005-.568-1.736-1.994zM271.691 240.817l1.006 3.401 2.499-2.944-3.505-.457zM271.117 358.061l-3.532-7.716a30.55 30.55 0 0 0-2.541-3.206l-8.308 2.637 14.381 8.285zM278.088 246.835l3.071-2.014-4.459-3.075 1.388 5.089zM277.827 213.579c.421-.853.844-1.705 1.266-2.558l-1.642 1.22.376 1.338zM274.83 233.205l2.143 1.635 2.125-5.453-4.268 3.818zM276.26 228.329l-1.431 4.455 4.27-3.821-2.839-.634zM277.602 215.597l3.504-1.986-2.996.566c-.171.473-.339.947-.508 1.42zM281.219 218.659l-3.942-2.197-2.315 2.881 6.257-.684zM301.336 154.68l-14.633 13.92 15.321-11.899c-.23-.675-.46-1.348-.688-2.021zM284.029 217.204l-1.384 1.468 1.749-.556-.365-.912zM273.055 143.938l-4.515 10.054c1.274 4.218 2.108 8.813 2.502 13.783l10.992-.389-8.979-23.448zM294.002 221.157l.521 5.822 1.484-5.005-2.005-.817zM286.534 235.241l.713-5.714-6.229-.108 5.516 5.822zM272.515 369.871l-.132 1.334c.053-.44.096-.886.132-1.334zM278.369 234.916l7.64.318-5.502-5.807-2.138 5.489zM285.067 173.078l-7.423 17.712 17.384-2.576-9.961-15.136zM292.847 218.741l-.059.015.749 1.213-.69-1.228zM291.646 214.198l-8.477-.468 1.853 2.748 6.624-2.28zM293.192 218.877l.692 1.23 2.008.818-2.7-2.048zM299.907 218.521l-.795 5.083 1.348-5.313-.553.23zM301.279 190.47a3107.49 3107.49 0 0 1-3.162-.265l3.312.776-.15-.511zM298.842 233.439c.379-.282.755-.563 1.127-.844l-.882-6.366-.245 7.21zM302.236 194.714c-1.909 2.06-3.816 4.12-5.726 6.179l13.927 2.321-8.201-8.5zM329.457 198.401c.063-.142.122-.284.183-.426l-5.409-.808 5.226 1.234zM303.134 194.465l8.599 6.991-2.107-6.745-6.492-.246zM315.211 126.351l-58.959-19.263 19.172 30.365 39.787-11.102zM312.516 186.443l5.7 1.655-2.893-3.638-2.807 1.983zM318.722 188.068l.882-3.901-3.781.254c.965 1.216 1.932 2.432 2.899 3.647zM311.607 193.382l9.624 1.374-2.797-5.41-6.827 4.036zM313.504 221.108l.019-.018-.025-.025.006.043zM323.901 194.288l9.225-6.535c.191-.759.372-1.521.536-2.286l-11.709-.607 1.948 9.428zM318.589 214.562l.544.442a73.98 73.98 0 0 0 4.352-5.803l-.413-.785-4.483 6.146zM324.12 205.017l2.449-.829a68.56 68.56 0 0 0 2.651-5.265l-5-1.181c-.032 2.425-.066 4.85-.1 7.275zM309.525 157.738l23.669-3.033a57.574 57.574 0 0 0-.634-2.402l-22.218-1.437-.817 6.872zM315.034 124.294a71.954 71.954 0 0 0-2.743-2.393c-6.484-5.371-13.866-9.594-22.14-12.678l-31.788-3.445 56.671 18.516z"/>
  </g>
  <g id="q-prim">
    <path class="st4" d="M235.334 104.999l-22.335 3.731a88.868 88.868 0 0 0-6.256 2.37c11.517-1.925 23.034-3.85 34.55-5.773l-38.208 7.426c-.267.129-.531.261-.797.393l40.464-7.865-42.116 11.021-5.005.539c-.402.25-.802.501-1.198.757l2.212-.239-2.819.636c-.363.239-.724.481-1.082.726l5.559-1.252-2.466 4.519-6.656-.673c-.171.133-.346.262-.516.396-.247.195-.492.39-.736.587 2.544.256 5.087.514 7.63.771l-1.976 7.526-7.646-6.629-.293.255 7.732 6.703-3.969 3.282-4.665-9.181c-.313.284-.624.57-.93.858l4.244 8.353-8.873-3.537c-.189.218-.376.438-.562.657l9.338 3.722-13.845 2.375a56.534 56.534 0 0 0-2.483 4.255l20.728 17.437-25.951-3.101a62.228 62.228 0 0 0-.774 4.169l26.344 3.148-10.209 22.755-16.883-16.719c-.006.409-.011.819-.011 1.231 0 .14.003.277.004.417l15.332 15.183-15.122-10.54c.028.331.061.66.094.986l14.625 10.193-12.511-.337a38.06 38.06 0 0 0 1.45 3.649l10.844.292-9.137 2.986c.202.343.41.683.623 1.019l9.144-2.989-5.697 7.565c.385.434.775.854 1.172 1.261l6.577-8.733c.057.466.114.932.169 1.398l-6.421 7.665c.036.037.074.072.111.108l6.306-7.527-3.338 10.125c.373.287.751.561 1.134.827 1.199-3.632 2.396-7.265 3.594-10.898l2.996 4.667-5.458 6.979c.201.127.404.251.609.374l5.22-6.675 2.685 8.89-2.528.265a30.557 30.557 0 0 0 6.438 1.42l-.04-.02 14.868-1.718-.219.354a28.74 28.74 0 0 0 4.366-1.836l-.769-.575c2.068-3.369 4.137-6.738 6.207-10.106l-.298 7.253c.494-.411.977-.842 1.451-1.291l.252-6.134 2.929-1.202-1.204 5.292a29.456 29.456 0 0 0 1.519-1.868l.746-3.279.546 1.391c.511-.817.974-1.655 1.391-2.516l-.552-.562 1.002-.421a27.021 27.021 0 0 0 1.364-3.955l-3.107 1.307-4.165-13.191 8.233 4.436c.001-.125.004-.25.004-.375 0-.63-.02-1.25-.054-1.862l-8.276-4.459 5.522-6.26a24.305 24.305 0 0 0-.988-1.769l-6.024 6.829-3.024-5.56 7.89-2.995a28.657 28.657 0 0 0-1.515-1.883l-6.458 2.452 2.215-6.572a50.744 50.744 0 0 0-1.3-1.057l-2.468 7.322-3.081-11.213a81.225 81.225 0 0 0-.783-.488 24.657 24.657 0 0 0-1.33-.701c1.141 4.15 2.281 8.3 3.42 12.451l-13.77-4.643 5.285-10.007c-.526-.208-1.075-.421-1.65-.641l-5.043 9.549-5.602-20.77 5.351 1.938a16.23 16.23 0 0 1 1.407-1.72c-2.282-.828-4.565-1.654-6.847-2.481l3.911-3.233 4.79 3.924c.224-.196.458-.395.697-.594l-5.071-4.155 1.951-7.434 5.211 9.965c.381-.278.775-.558 1.185-.841l-5.013-9.585 18.956-4.272-4.615 8.656c.5-.211 1.003-.413 1.509-.604 1.367-2.564 2.734-5.129 4.102-7.692l.285 6.281a43.934 43.934 0 0 1 3.406-.758l-.249-5.461 20.546 2.202-3.242 3.401c.104.021.207.045.31.067a4595.76 4595.76 0 0 0 3.046-3.196l.108.083-3.023 3.142c.352.076.7.157 1.046.242l1.896-1.97-.19 2.429a35.62 35.62 0 0 1 2.013.661l.24-3.061-.202 3.075c.929.337 1.837.708 2.725 1.118l.275-4.193 22.446 16.575-5.976 3.526c.314.552.62 1.111.914 1.681l4.891-2.886-4.705 3.257c.161.319.318.64.472.965l4.352-3.013-2.88 6.451c.25.651.487 1.313.714 1.984 1.257-2.817 2.516-5.634 3.772-8.451l.052.028-3.807 8.477c.174.516.343 1.036.502 1.563l4.516-10.054 8.979 23.448-10.992.389a86.29 86.29 0 0 1 .255 5.741l10.424-.369-7.364 17.573-3.816-5.449a88.146 88.146 0 0 1-.285 1.888l2.932 4.185-4.009 1.389c-.258 1.153-.54 2.317-.846 3.489l5.003-1.734-3.737 6.238-2.254-.957c-.079.271-.161.542-.244.814l1.854.787-2.193.313c-.261.828-.532 1.662-.815 2.499l.836-1.239 2.335-.333-3.803 3.395a141.366 141.366 0 0 1-2.027 5.364l2.696 7.402-3.902-4.479c-.061.141-.118.281-.178.422l3.895 4.472-6.523 1.345c-.309.651-.624 1.306-.945 1.961 2.478-.511 4.957-1.021 7.435-1.533l-4.617 2.792-2.971-.941c-.194.394-.395.791-.592 1.187l2.663.843-1.144 3.914-1.885-4.025c-.074.148-.151.296-.227.444l1.884 4.022c-.354.751-.711 1.503-1.067 2.254l-1.03-5.858c-.368.719-.742 1.441-1.124 2.166l.678 3.853-2.94.33c-.335.604-.674 1.208-1.019 1.816l3.929-.441-1.645 2.047-2.864-.589c-.12.209-.236.417-.358.627a4.98 4.98 0 0 1-.037.067l2.909.598-.589 2.539-2.91-2.073-.124.225 2.595 1.848-3.526-.157c-.201.365-.397.725-.591 1.08l4.1.182c-.361.608-.723 1.215-1.083 1.823a4728.44 4728.44 0 0 1-3.411-1.282l-.039.072 3.221 1.21-3.723-.285a376.76 376.76 0 0 0-.831 1.545l4.058.31-6.729 4.795c-.437.855-.84 1.662-1.212 2.42l7.969-5.677-4.152 13.01-3.94-7.08c-.249.509-.481.993-.7 1.455l3.806 6.838-3.935-3.88c-.025-.842-.049-1.683-.075-2.523-.145.311-.283.612-.414.9-.114.244-.225.491-.336.738l.003.108-.02-.072a92.87 92.87 0 0 0-.347.784.59.59 0 0 1 .013.045l-.046.032c-.119.274-.237.552-.353.83.134-.094.268-.188.402-.28a5333.13 5333.13 0 0 0-.758 3.4l-.558-.817c-.067.179-.135.356-.201.536l.612.897-1.298 1.699-.005-.62a74.263 74.263 0 0 0-.679 2.141l.484-.465 2.028 1.838c-.962-.031-1.925-.062-2.888-.091a78.166 78.166 0 0 0-.47 1.745l3.374.105-.928 7.771-2.638-7.12c-.102.41-.2.822-.295 1.236l2.182 5.89-3.286-.239c-.1.609-.195 1.224-.284 1.842l3.596.262-3.916 2.15c-.02.161-.038.323-.056.485l4.169-2.289v4.312l-4.254-1.282c-.026.239-.05.479-.074.719l4.211 1.269-4.415.92-.047.58 4.47-.931-4.582 2.503-.015.241 4.887-2.67 1.306 3.412c-2.071-.133-4.142-.267-6.213-.398-.047.788-.087 1.583-.12 2.385l6.375.408-6.353 11.454-.094-2.273c.015.698.035 1.302.06 1.809.063 1.337.159 2.579.287 3.725l16.432.192v-2.484l.002-.157-.547 1.937-4.404-4.811 5.048-2.05c.012-.301.025-.601.039-.898-1.691.687-3.381 1.372-5.071 2.06l2.906-3.282 2.206.403c.016-.295.033-.588.052-.878l-1.963-.359-1.144-2.412 3.155 2.057c.014-.199.027-.399.042-.596l-2.949-1.923 3.268-1.474a52.9 52.9 0 0 1 .082-.709l-3.339 1.505.482-3.659 3.073.498c.038-.275.079-.549.121-.82l-3.267-.531c-.321-.731-.641-1.464-.961-2.196l4.333 2.054c.051-.312.104-.623.158-.93l-4.475-2.12 3.728-5.646c.474 1.479.946 2.96 1.418 4.441a57.08 57.08 0 0 1 .491-1.967l-.791-2.477 1.166 1.152c.135-.454.274-.901.42-1.34l-.828-.819c.403-.098.808-.193 1.213-.29a40.1 40.1 0 0 1 .905-2.293l-2.07.494c1.365-2.741 2.73-5.483 4.097-8.224l1.373 1.563c.163-.241.33-.483.501-.724l-1.104-1.258c.663.017 1.326.031 1.988.047.389-.514.794-1.026 1.215-1.537l-.606-.033 1.517-2.599.55.93a60.234 60.234 0 0 1 2.194-2.318l-1.288-.047 1.148-4.973 2.945 2.366c.114-.103.229-.204.347-.308l-3.069-2.466 2.05-2.12c.727 1.194 1.452 2.389 2.179 3.582l.292-.247c-.693-1.139-1.387-2.277-2.079-3.417l4.291-.399.052 1.982c.449-.353.908-.704 1.373-1.055-.008-.331-.017-.661-.024-.992l1.511-.1c1.656-1.177 3.996-2.755 7.011-4.727l.528-.894.591.164c.594-.386 1.21-.785 1.851-1.199.69-1.269 1.381-2.538 2.07-3.808l.643 2.034c.461-.306.917-.611 1.369-.915-.149-.477-.301-.952-.451-1.428l3.642-.749c.575-.398 1.141-.795 1.701-1.191l-5.367 1.104-.14-1.337 6.188-.247c.62-.441 1.229-.88 1.832-1.317l-8.023.32 5.173-6.193c1.007 1.917 2.015 3.833 3.021 5.75l.674-.492-2.81-5.347c.254-.039.509-.077.764-.114l2.104 5.418.265-.195c-.73-1.883-1.462-3.766-2.193-5.648l2.626-2.493-.273 8.024.665-.493.245-7.21.882 6.366.939-.713-.743-5.366 2.498 4.008.525-.416-2.716-4.356 9.804-4.639-.387 3.378c.68-.609 1.341-1.213 1.98-1.813l.176-1.538.209 1.174c.425-.403.843-.805 1.249-1.205l-.007-.043.025.025c.275-.27.546-.539.813-.807-.283-.28-.565-.561-.85-.841l3.714-3.439c.136.266.27.531.404.797.244-.277.484-.556.724-.836l-.004-.007.005.005c.103-.119.206-.237.308-.357l-.035-.036.039.031c.166-.197.329-.396.493-.595l-.544-.442 4.483-6.147.412.785c.418-.619.821-1.245 1.218-1.873l-.149-.127.292-.099c.6-.96 1.175-1.931 1.725-2.914l-2.449.829.102-7.275 4.999 1.181c.078-.173.159-.347.236-.521l-5.227-1.235 5.409.808.111-.258-5.525-.826.008-1.002 5.738 1.312c.143-.342.28-.685.418-1.028l-6.178-1.412c2.897-2.054 5.797-4.107 8.695-6.161.075-.282.147-.563.219-.846l-9.225 6.535-1.948-9.428 11.709.607c.081-.375.156-.752.229-1.128l-11.818-.613c3.982-.019 7.966-.036 11.949-.054.01-.053.018-.106.027-.16l-11.891.054 11.959-.442.01-.058-11.89.44 11.947-.765c.155-.909.29-1.822.406-2.739l-11.721.751 12.173-12.761a71.3 71.3 0 0 0-.076-1.401l-13.43 14.078-11.79-20.275c8.008-1.025 16.016-2.052 24.023-3.078a62.183 62.183 0 0 0-.577-2.609l-23.669 3.033c.271-2.291.545-4.581.817-6.871l22.219 1.437a61.555 61.555 0 0 0-.647-2.126l-21.684-1.402 13.14-14.87.596.457a60.718 60.718 0 0 0-3.672-4.669l.69 3.577-13.066 14.788 12.164-18.609a66.316 66.316 0 0 0-5.047-5.155l-56.672-18.515 31.788 3.445a86.327 86.327 0 0 0-4.829-1.639l-26.325-2.854 18.854.89c-1.52-.334-3.066-.633-4.636-.904l-11.307-.534 7.588-.044c-5.594-.768-11.486-1.154-17.681-1.154-8.597 0-16.631.674-24.112 2.014 2.538-.006 5.082-.006 7.625-.006zm-47.814 91.532l-2.999-4.673 3.081 4.047c-.028.209-.056.417-.082.626zm-2.967-7.091c1.637-.424 3.274-.849 4.912-1.272l-4.743 2.665-.169-1.393zm.198 1.957l4.732-2.66-1.65 6.709-3.082-4.049zm5.597-2.735l3.062-.617-4.706 7.302 1.644-6.685zm4.614-1.231l6.093 2.303-2.28.634-3.813-2.937zm2.81 3.564l-8.514 4.343 4.694-7.285 3.82 2.942zm8.076-13.326l-10.32 7.597 7.068-12.387 3.252 4.79zm-4.866-8.543l3.299.653-1.257 1.12-2.042-1.773zm-5.431 17.126l10.274-7.563-4.165 9.871c-2.036-.768-4.072-1.539-6.109-2.308zm11.825-7.535l4.681 5.146-8.821 4.671 4.14-9.817zm-1.512-8.169l8.051 3.919-6.047 1.975c-.669-1.964-1.336-3.929-2.004-5.894zm.98 5.905l-3.26-4.801 1.25-1.113 2.01 5.914zm-5.865-7.7l.962-1.649 2.343 2.303-3.305-.654zm1.17 3.864l-7.088 12.421c1.686-4.728 3.37-9.457 5.055-14.185l2.033 1.764zm-7.799 12.524l-3.085.622 8.152-14.84-5.067 14.218zm-5.095 10.706l8.497-4.334-8.578 4.955.081-.621zm-.062 1.917l8.54-4.932-5.873 13.762c-.889-2.944-1.777-5.887-2.667-8.83zm4.49 8.775l5.827-13.653 9.171 11.919-14.998 1.734zm6.73-14.001l2.247-.625 6.904 12.516-9.151-11.891zm10.47 11.859l-6.868-12.451 13.126 2.261-6.258 10.19zm-6.932-14.778l8.756-4.637 4.499 6.92-13.255-2.283zm15.033 2.264l-4.473-6.881 7.45 5.66-2.977 1.221zm3.002-2.536l-7.499-5.697 3.312-7.565 4.187 13.262zm-8.142-6.536l1.311-7.099 2.021-.511-3.332 7.61zm3.395-9.444l-2.039.516-.982-6.071 3.021 5.555zm-4.378 9.528l-4.689-5.155 6.004-1.961-1.315 7.116zm1.066-9.001l-8.075-3.931 7.089-2.163.986 6.094zm-1.427-6.661l-7.119 2.171-2.335-2.295 9.454.124zm-.514-.888l-9.514-.125-4.108-4.467 13.622 4.592zm-10.768.082l-.968 1.658-3.152-6.14 4.12 4.482zm-1.786 3.645l-8.184 14.896 5.053-20.995 3.131 6.099zm-9.271 15.104l-4.958 1.285 10.028-22.354-5.07 21.069zm3.954-26.398l-21.673-18.233 16.015-2.746 5.658 20.979zm4.631-36.809l2.447-4.482 16.722.163-19.169 4.319zm44.433-2.554l-20.899-2.24 22.896-2.702c-.667 1.647-1.332 3.295-1.997 4.942zm2.192.005l1.994-4.935-1.884 5.018-.11-.083zm31.003 24.341l23.727 9.646-14.683 13.969c-3.015-7.872-6.028-15.743-9.044-23.615zm37.688 58.545l7.438-4.449-.836 7.61-6.602-3.161zm6.421 3.789l-6.945-1.594.362-1.558 6.583 3.152zm.729-9.654l-9.593-2.358 9.601 1.37-.008.988zm-9.605-3.059l6.827-4.036 2.797 5.41-9.624-1.374zm-17.974 24.577l.265-3.495c1.72.962 3.438 1.925 5.157 2.888l-5.422.607zm5.416.209c-.9.886-1.803 1.772-2.703 2.659l-2.708-2.053c1.803-.202 3.608-.403 5.411-.606zm-7.403-3.97l-6.624 2.28-1.853-2.748 8.477.468zm-8.51-1.102c-.05-.481-.099-.963-.147-1.444l8.641 1.914-8.494-.47zm8.828 1.338l-6.26 3.201-.368-.919 6.628-2.282zm.063.047l-.322 3.48-5.938-.279 6.26-3.201zm-.251-2.14a68690.79 68690.79 0 0 1-8.906-6.279l9.895-3.039c-.328 3.106-.659 6.212-.989 9.318zm-.174.497l-8.661-1.918-.224-4.346 8.885 6.264zm-7.716 3.889l-1.385 1.469-.458-4.201 1.843 2.732zm.143.477l.365.912-1.749.556 1.384-1.468zm1.016 2.13l3.71 6.584-5.458-6.029 1.748-.555zm.681-.01l5.911.278-2.19 6.327-3.721-6.605zm6.688.315l.747 1.209-2.945 5.14 2.198-6.349zm.374-.884l.059-.015.69 1.228-.749-1.213zm-.014-.8l-.059.014.322-3.496-.263 3.482zm-.315-17.855l-14.685-6.096 17.124-2.538-2.439 8.634zm1.569 14.263l5.716 2.661a64.75 64.75 0 0 1-.553.23l-5.163-2.891zm-.012-1.555l.997-9.392 4.744 12.065-5.741-2.673zm10.829-53.115c-1.677 3.062-3.354 6.124-5.033 9.186 1.601-3.088 3.199-6.177 4.798-9.265l.235.079zm-.659-3.984l1.169 2.49a22.013 22.013 0 0 0-.237-.08l-.932-2.41zm-1.651 32.514l-2.011-15.927 9.847 12.839-7.836 3.088zm8.088-1.222l-7.632 3.583-.151-.515 7.783-3.068zm-12.506 3.205l3.162.265.149.512c-1.104-.26-2.207-.519-3.311-.777zm3.31 1.043l-.044 1.799-3.264-2.574 3.308.775zm-.155-3.064l-3.193-.268 1.193-15.584 2 15.852zm-3.119-19.602l-11.438.274 15.298-11.883-3.86 11.609zm-11.45.017l14.633-13.92.688 2.021-15.321 11.899zm10.823 3.74l-1.187 15.495-10.021-15.226 11.208-.269zm.219 19.081l3.247 2.56-5.712 6.164 2.465-8.724zm-1.179 11.951l13.815 2.302-9.036 9.851-4.779-12.153zm-.055-2.479c1.909-2.06 3.816-4.12 5.726-6.179l8.201 8.5-13.927-2.321zm6.344-9.497l6.468 2.057-6.512-.248.044-1.809zm.162-.518l7.624-3.579-1.139 5.641-6.485-2.062zm-2.125-19.033l12.686 10.9-2.806 1.983a475014.8 475014.8 0 0 1-9.88-12.883zm11.475 15.433l5.679 1.648-6.825 4.035 1.146-5.683zm.149-.835l2.808-1.983 2.893 3.638-5.701-1.655zm-11.668-16.118l5.015-9.154 7.759 20.129a45852.96 45852.96 0 0 1-12.774-10.975zm4.607-12.643l-1.174-2.498 1.978-4.262-.804 6.76zm-1.26-2.8c-.232-.684-.467-1.369-.7-2.053l2.68-2.214-1.98 4.267zm-.538 2.025c.31.797.617 1.594.926 2.391l-4.805 9.279 3.879-11.67zm-3.097-5.254l-23.989-9.752 26.664 7.542-2.675 2.21zm-15.493 21.425l9.961 15.136-17.384 2.576 7.423-17.712zm6.965 27.907l-9.946 3.054-4.662-9.118 14.608 6.064zm-5.883 35.548l.138 1.319-7.123-.237 6.985-1.082zm-7.127.98l-.648-1.399 7.63.318-6.982 1.081zm-.653-2.597l2.138-5.489 5.502 5.807-7.64-.318zm-7.612 4.332l-3.518-.584 5.688-4.133-2.17 4.717zm.83 5.199l-4.212 1.22 3.212-4.602 1 3.382zm-10.171-13.346l10.542 2.776a20228.8 20228.8 0 0 1-5.668 4.119l-4.874-6.895zm4.096 14.428l-5.144-3.514 4.847-1.625c.098 1.714.198 3.426.297 5.139zm12.681-31.948l1.269-2.562 1.736 1.993-3.005.569zm2.912.03l-3.504 1.986.508-1.42 2.996-.566zm-1.423-2.692l1.592.56c.05.479.098.957.146 1.436l-1.738-1.996zm-.027-.393l.931-.833c.222.464.442.929.663 1.394l-1.594-.561zm1.091-1.335l.442-2.929c.074 1.442.147 2.884.223 4.326-.223-.465-.443-.931-.665-1.397zm-.198-.097l-.932.835 1.374-3.762-.442 2.927zm-1.594.175l-3.872-7.637 5.248 3.873a4174.24 4174.24 0 0 0-1.376 3.764zm.139 1.752l-1.266 2.558-.376-1.338c.547-.408 1.094-.813 1.642-1.22zm-1.512 3.021l-.507 1.418.133-2.753.374 1.335zm-.305 2.42l3.942 2.197-6.258.684c.772-.96 1.545-1.92 2.316-2.881zm-1.645 10.909l-1.551.697-.414-2.078 1.965 1.381zm-1.968-2.288c.133-1.397.265-2.795.396-4.193l1.575 5.578-1.971-1.385zm2.044 3.251l-1.428 4.443-.121-3.748 1.549-.695zm.553-.005l2.839.633-4.27 3.821 1.431-4.454zm-1.285-7.575l6.23-.682c-1.55 2.094-3.1 4.188-4.648 6.283-.529-1.867-1.055-3.734-1.582-5.601zm1.618-4.783l-2.313 2.879c.814-1.874 1.631-3.748 2.446-5.622l-.133 2.743zm-5.628-13.034l3.073-1.077 2.209 8.829-5.282-7.752zm2.451 15.979l-4.779.415 7.216-6.018-2.437 5.603zm-.463 1.725l-.394 4.179a8421.052 8421.052 0 0 0-4.347-3.768l4.741-.411zm-.879 7.237l-9.349-3.012 8.938.949c.137.688.275 1.375.411 2.063zm-.104 5.011l-10.566-2.784 10.448-.926.118 3.71zm2.052 1.629l2.132 1.625-4.313 3.118 2.181-4.743zm2.131 2.023l-.802 3.573-3.509-.457 4.311-3.116zm-.499 5.219l1.381 5.063-3.885-2.111c.834-.985 1.67-1.969 2.504-2.952zm1.292-5.226l.644 1.388-1.448 2.199c.267-1.196.536-2.392.804-3.587zm.027-1.695l-2.143-1.635 4.268-3.818-2.125 5.453zm2.728-7.727l-2.859-.638c1.551-2.096 3.103-4.192 4.653-6.289l-1.794 6.927zm-2.017-11.126l3.5-1.985.456 4.188-3.956-2.203zm-1.973-21.041l4.637 9.069-5.282-3.898.645-5.171zm3.005 14.529l-1.649 1.225-2.216-8.85 3.865 7.625zm-4.295-14.992l-.645 5.165-3.102 1.087 3.747-6.252zm-4.381 8.654l5.265 7.726-10.577-2.983 5.312-4.743zm-5.269 6.681l10.488 2.958-7.218 6.02c-1.089-2.993-2.179-5.985-3.27-8.978zm2.498 11.319l4.331 3.754-8.966-.952 4.635-2.802zm-4.758 3.912l9.336 3.007-10.484.929 1.148-3.936zm2.651 12.931a6109.99 6109.99 0 0 1-4.576-1.199c-.092-1.888-.183-3.775-.273-5.663l4.849 6.862zm-4.572.265l4.563 1.196-4.846 1.624.283-2.82zm2.243 11.886l-8.041-6.802 4.386-.249 3.655 7.051zm-6.681 9.152l-1.381-14.399 8.082 6.837a15753.67 15753.67 0 0 1-6.701 7.562zm7.001-6.211l-2.902 6.524-3.843 1.087c2.249-2.536 4.496-5.074 6.745-7.611zm-4.506-12.101l-3.277-1.587 1.479-1.614c.599 1.066 1.2 2.134 1.798 3.201zm-1.434-3.204l2.081.403-.28 2.803-1.801-3.206zm1.967-6.878c.092 1.88.183 3.761.273 5.642a3432.44 3432.44 0 0 0-1.334-3.401c.355-.747.708-1.494 1.061-2.241zm-1.213 2.699l1.33 3.394-2.088-.404.758-2.99zm-.456-.081l-.755 2.986-.892-.935 1.647-2.051zm-1.923 2.808l.889.932-1.479 1.612.59-2.544zm-.442 3.456l3.272 1.585-4.362.248 1.09-1.833zm-2.568 5.14l1.376 14.345-5.529-1.328 4.153-13.017zm1.416 17.266l-2.828 1.325-2.781-2.672 5.609 1.347zm-12.453 11.525l.926-7.753 4.845 4.042-5.771 3.711zm5.908-2.967l.692.803-6.484 2.923 5.792-3.726zm-1.186 10.816l-3.635 3.422-1.303-3.405 4.938-.017zm-4.921-1.339v-4.3l4.904 4.283-4.904.017zm5.148 1.419l-2.57 3.884-1.065-.462 3.635-3.422zm-2.789 5.759l1.333 7.667-2.409-8.134 1.076.467zm.438.078l2.884 2.001-1.551 5.667-1.333-7.668zm.127-1.229a3854.82 3854.82 0 0 0 3.544-1.69l-.681 3.679-2.863-1.989zm.006-.724l2.569-3.884.962 2.2-3.531 1.684zm2.259-5.859l-4.889-4.271c2.171-.979 4.343-1.957 6.514-2.937a12857.9 12857.9 0 0 1-1.625 7.208zm1.322-10.431l-4.824-4.024c2.279-.118 4.557-.235 6.835-.354l-2.011 4.378zm2.924-4.228l-1.326 5.175-.687-.796 2.013-4.379zm-3.717-4.1l2.784 2.675c-2.264.116-4.528.233-6.792.352a2216.01 2216.01 0 0 1 4.008-3.027zm-4.636-5.247l3.946 3.894-4.704-.499.758-3.395zm-.825 4.157c1.574.166 3.147.333 4.72.501l-5.026.482.306-.983zm4.727 1.089l-4.013 3.028-1.027-2.545 5.04-.483zm-5.837-.954l-.307.986-.994.715c.434-.567.868-1.133 1.301-1.701zm-1.164 2.243l.996-.716c.343.851.687 1.7 1.029 2.551l-2.025-1.835zm2.253 25.261l2.418 8.166-8.77 3.286 6.352-11.452zm-6.386 12.917l8.836-3.312-7.433 4.014-1.403-.702zm14.18 1.644l-11.85-.813 7.433-4.013 4.417 4.826zm-3.456-6.533l1.554-5.677 1.347 2.401-2.901 3.276zm3.155-3.826l-1.343-2.393.2-.017 1.143 2.41zm-.77-7.098l-.482 3.661-.199.017.681-3.678zm-.509-4.896l1.624-7.202 2.088 1.58-3.712 5.622zm1.927-9.184l1.328-5.183.741 6.747-2.069-1.564zm1.975-5.431l2.85-1.335-2.109 8.075-.741-6.74zm1.252 6.715l2.111-8.077 1.982-.139c-1.364 2.739-2.727 5.478-4.093 8.216zm4.85-9.922l-1.967.137 3.859-1.091c-.63.318-1.261.637-1.892.954zm.43-.016l1.895-.956.254 1.006-2.149-.05zm2.806-.256l-.255-1.006 1.77-1.591c-.506.865-1.011 1.73-1.515 2.597zm1.735-3.757l-1.762 1.584 2.906-6.532-1.144 4.948zm1.271-7.654l-3.674-7.088 5.15 3.518-1.476 3.57zm.845.717l1.483-3.589.552 1.483-2.035 2.106zm1.94-10.494l3.507.583-3.208 4.596-.299-5.179zm.55 6.248l4.216-1.22-3.662 2.709-.554-1.489zm.777 1.491l3.666-2.712.608 2.315-4.274.397zm3.541-7.293l3.505.457-2.499 2.944-1.006-3.401zm2.07 6.826l-.612-2.33 3.887 2.112-3.275.218zm4.327-.808a9613.61 9613.61 0 0 1-1.388-5.089l4.459 3.075-3.071 2.014zm3.186-2.389a7037.917 7037.917 0 0 1-4.461-3.077l5.071 2.044c-.202.345-.406.689-.61 1.033zm-4.461-3.679c.483-.736.968-1.471 1.452-2.207l3.619 4.25-5.071-2.043zm5.989 2.053l-3.636-4.27 7.12.237-3.484 4.033zm1.785.42l-1.126-.313 3.496-4.046-2.37 4.359zm1.947-7.999l-5.516-5.822 6.229.108-.713 5.714zm-5.53-8.09l1.805-6.967 4.453 7.075-6.258-.108zm2.295-6.974l5.454 6.023-.992 1.068-4.462-7.091zm5.002 15.038l.72-5.766 4.439-.412-5.159 6.178zm.84-6.885l.996-1.072 3.454.659-4.45.413zm1.164-2.023c.98-1.713 1.963-3.426 2.944-5.139.173 1.934.345 3.867.519 5.8l-3.463-.661zm3.58-6.2l-.692-1.23 2.7 2.048-2.008-.818zm.117 1.05l2.005.817-1.484 5.005-.521-5.822zm1.373 5.845l-.765.115 1.484-5.006-.719 4.891zm1.109-4.915l1.549 2.336-2.271 2.564.722-4.9zm-.661 5.291l2.27-2.563.358.065-2.628 2.498zm2.392-3.37l-1.552-2.341 1.911 2.407-.359-.066zm.492-.371l-1.915-2.41 2.708-2.662-.793 5.072zm.405-.033l.795-5.083.553-.23-1.348 5.313zm1.344.019l1.357-5.35 8.479.695-9.836 4.655zm10.162-6.92l-8.537-.699 9.057-9.874-.52 10.573zm.753-13.472l-8.234-8.534 8.593 6.986c-.121.516-.24 1.032-.359 1.548zm-8.237-8.766l6.491.247 2.107 6.745-8.598-6.992zm8.494.251l9.573 2.354-7.444 4.454-2.129-6.808zm.782 22.035l.524-10.667 3.188 7.229a5815.27 5815.27 0 0 0-3.712 3.438zm4.341-3.934l-3.202-7.262 6.925 1.589-3.723 5.673zm.568.176l3.731-5.687.734-.438a8684.172 8684.172 0 0 1-4.465 6.125zm5.022-7.95l-.74.441.84-7.646-.1 7.205zm-.153-10.795l-2.814-5.445.883-3.903c.642 3.116 1.287 6.231 1.931 9.348zm-3.466-6.18l-2.899-3.646 3.781-.254-.882 3.9zm-.111-6.979l-3.815.256-7.793-20.22 11.608 19.964zm-13.809-33.123l-27.012-7.642 39.184-10.977-12.172 18.619zm12.269-19.523l-39.391 11.035-.055-.029 39.446-11.006zm-1.86-2.092l-39.787 11.102-19.172-30.365 58.959 19.263zm-63.135-19.179c6.355 10.066 12.711 20.131 19.065 30.198l-19.181-23.952c.04-2.082.078-4.164.116-6.246zm18.6 30.822c-7.605-5.618-15.213-11.235-22.82-16.852l3.733-6.983a398181.9 398181.9 0 0 1 19.087 23.835zm-20.873-33.284l-.117 6.344-1.908 2.061 2.025-8.405zm-.335 7.513l-3.779 7.07 1.887-5.026 1.892-2.044zm-4.004 1.162l-23.068 2.722 25.091-11.12-2.023 8.398zm-24.76 2.733l-16.813-.164 41.953-10.978-25.14 11.142z"/>
    <path class="st4" d="M164.878 171.043c.011 1.589.08 3.137.21 4.643l15.122 10.54-15.332-15.183zM220.704 116.118l25.139-11.141-41.953 10.978 16.814.163zM193.375 130.923l-7.732-6.703c-.305.266-.604.535-.902.805l4.665 9.18 3.969-3.282zM216.301 157.045a65.64 65.64 0 0 0-5.549-3.891l3.081 11.213 2.468-7.322zM200.982 169.126l2.042 1.773 1.257-1.12-3.299-.653zM191.19 135.64l6.847 2.481a25.224 25.224 0 0 1 1.853-1.791l-4.79-3.924c-1.303 1.078-2.606 2.157-3.91 3.234zM213.295 363.195a32.556 32.556 0 0 0-.199 2.306l2.917.24-2.718-2.546zM205.864 170.548l2.004 5.895 6.047-1.975-8.051-3.92zM253.259 239.711l-4.1-.183-.395.724 3.411 1.282 1.084-1.823zM243.029 265.199l4.824 4.024 2.012-4.378-6.836.354zM222.247 119.836l.249 5.461a45.427 45.427 0 0 1 8.11-.72c3.146 0 6.127.289 8.945.862l3.242-3.401-20.546-2.202zM239.571 275.905l-4.169 2.289c-.029.247-.058.493-.085.74l4.254 1.282v-4.311zM241.387 255.548l-.402.28a70.699 70.699 0 0 0-.914 2.303l.558.817.758-3.4zM246.49 281.63l-3.636 3.422 1.065.462 2.571-3.884zM248.726 240.325l-.502.926 3.723.284-3.221-1.21zM247.394 242.795a292.775 292.775 0 0 0-2.671 5.104l6.729-4.794-4.058-.31zM251.479 244.643l-7.969 5.677-.123.252c1.313 2.36 2.626 4.721 3.94 7.08l4.152-13.009zM256.3 233.316l-3.929.441-.58 1.017 2.864.589 1.645-2.047zM267.373 246.619l.554 1.489 3.662-2.709-4.216 1.22zM267.269 221.136l-4.635 2.802 8.966.952c-1.445-1.251-2.888-2.503-4.331-3.754zM270.255 187.16a94.033 94.033 0 0 1-1.077 5.573l4.009-1.389c-.978-1.394-1.956-2.789-2.932-4.184zM278.716 209.474a27310.3 27310.3 0 0 0-3.865-7.625l2.216 8.85 1.649-1.225zM256.517 352.405l-.589 31.337 15.287-22.87-14.698-8.467zM273.896 250.504c.344-.258.688-.515 1.038-.772l.448-.32-1.511.1c.009.331.018.661.025.992zM275.711 194.945l-.646 5.171 5.282 3.898-4.636-9.069zM281.274 244.446l.61-1.033-5.071-2.044 4.461 3.077zM276.813 240.767l5.071 2.044-3.619-4.25-1.452 2.206zM281.721 173.148l-10.425.369c.005.373.009.746.009 1.122 0 3.441-.258 6.986-.765 10.633l3.816 5.449 7.365-17.573zM284.587 243.24l2.37-4.359a12595.71 12595.71 0 0 0-3.496 4.046l1.126.313zM286.149 236.533l-6.985 1.082 7.123.237-.138-1.319zM288.826 235.223l8.023-.32.171-.124a7942.896 7942.896 0 0 1-3.021-5.75l-5.173 6.194zM291.637 219.602l-5.911-.278 3.721 6.604 2.19-6.326zM288.301 235.215l5.159-6.177-4.439.412c-.241 1.921-.48 3.842-.72 5.765zM299.744 217.023l-5.716-2.661 5.163 2.891c.185-.076.369-.152.553-.23zM304.195 154.882l1.979-4.267-2.68 2.214c.235.684.469 1.369.701 2.053zM310.623 187.001l-7.783 3.067c.051.172.102.344.151.515l7.632-3.582zM314.796 181.346l3.815-.256-11.608-19.964 7.793 20.22zM300.56 151.653l2.675-2.21-26.664-7.542 23.989 9.752zM302.535 188.223l7.836-3.088-9.847-12.839 2.011 15.927zM304.802 147.966l12.172-18.619-39.184 10.977 27.012 7.642zM321.499 197.856l-7.438 4.449 6.602 3.161.836-7.61zM334.128 183.064l.058-.326-11.948.766 11.89-.44zM321.538 180.667l13.43-14.078a70.001 70.001 0 0 0-1.196-9.275l-24.023 3.078 11.789 20.275zM334.592 180c.353-2.772.533-5.578.533-8.417 0-1.211-.028-2.408-.081-3.592l-12.173 12.761c3.907-.252 7.815-.502 11.721-.752zM273.215 104.718a111.594 111.594 0 0 0-3.719-.579l-7.588.044 11.307.535z"/>
  </g>
</svg>