<?xml version="1.0" encoding="utf-8"?>
<!-- Generator: Adobe Illustrator 16.0.0, SVG Export Plug-In . SVG Version: 6.00 Build 0)  -->
<!DOCTYPE svg PUBLIC "-//W3C//DTD SVG 1.1//EN" "http://www.w3.org/Graphics/SVG/1.1/DTD/svg11.dtd">
<svg version="1.1" id="Layer_1" xmlns="http://www.w3.org/2000/svg" xmlns:xlink="http://www.w3.org/1999/xlink" x="0px" y="0px"
	 width="426px" height="264px" viewBox="0 0 426 264" style="enable-background:new 0 0 426 264;" xml:space="preserve">
<style type="text/css">
<![CDATA[
	.st0{fill:#FFFFFF;}
]]>
</style>
<g>
	<path class="st0" d="M13.811,157.146c0-0.66,0.214-1.229,0.64-1.705c0.426-0.473,0.875-0.709,1.35-0.709
		c0.473,0,1.184,0.379,2.131,1.136l2.984,2.272c1.136,0.76,2.912,1.492,5.327,2.202s5.136,1.065,8.169,1.065
		c5.587,0,9.754-1.088,12.502-3.27c2.746-2.177,4.12-5.018,4.12-8.522c0-4.071-1.231-7.269-3.693-9.591
		c-2.464-2.319-5.448-4-8.95-5.043l-10.513-3.268c-3.506-1.136-6.49-2.958-8.951-5.47c-2.463-2.509-3.693-5.896-3.693-10.158
		c0-4.831,1.798-9.116,5.398-12.857c3.598-3.74,8.809-5.613,15.628-5.613c4.167,0,8.098,0.664,11.792,1.99
		c3.693,1.327,5.541,2.652,5.541,3.978c0,0.568-0.262,1.186-0.781,1.847c-0.522,0.664-1.066,0.995-1.634,0.995
		c-0.095,0-1.729-0.641-4.901-1.919c-3.175-1.278-6.464-1.917-9.874-1.917c-5.495,0-9.568,1.389-12.218,4.166
		c-2.653,2.777-3.978,5.815-3.978,9.108c0,3.39,1.239,6.073,3.716,8.049c2.478,1.979,5.457,3.484,8.939,4.515
		c3.481,1.035,6.986,2.074,10.516,3.12c3.527,1.047,6.515,3.053,8.96,6.02c2.447,2.965,3.67,6.887,3.67,11.765
		c0,5.306-1.896,9.472-5.683,12.503c-3.79,3.032-9.046,4.546-15.77,4.546c-5.875,0-10.798-1.041-14.776-3.127
		C15.8,161.174,13.811,159.136,13.811,157.146z"/>
	<path class="st0" d="M68.649,140.523v-17.758c0-6.819,2.485-12.715,7.458-17.688c4.973-4.974,10.916-7.46,17.83-7.46
		c6.82,0,12.715,2.44,17.688,7.317c4.973,4.88,7.46,10.965,7.46,18.257c0,2.463-0.285,4.454-0.853,5.967
		c-0.569,1.516-1.517,2.606-2.842,3.267c-1.327,0.665-2.535,1.066-3.623,1.208c-1.089,0.143-2.582,0.215-4.475,0.215H73.621v6.676
		c0,6.349,2.224,11.416,6.677,15.201c4.451,3.791,10.229,5.685,17.333,5.685c3.503,0,6.439-0.498,8.809-1.492
		c2.366-0.994,4.142-1.964,5.327-2.913c1.184-0.943,2.061-1.419,2.628-1.419c0.661,0,1.254,0.283,1.776,0.853
		c0.52,0.566,0.782,1.137,0.782,1.703c0,0.949-0.759,2.063-2.273,3.34c-1.517,1.278-3.836,2.416-6.961,3.41
		c-3.125,0.993-6.584,1.491-10.372,1.491c-8.432,0-15.321-2.392-20.671-7.175C71.324,154.425,68.649,148.195,68.649,140.523z
		 M73.621,128.875h31.966c3.503,0,5.8-0.331,6.89-0.995c1.088-0.661,1.634-2.083,1.634-4.262c0-5.398-1.896-10.251-5.682-14.563
		c-3.791-4.309-8.621-6.464-14.492-6.464c-5.683,0-10.491,2.012-14.42,6.038c-3.932,4.027-5.896,8.738-5.896,14.136V128.875
		L73.621,128.875z"/>
	<path class="st0" d="M183.156,164.748c-0.474,0.521-1.042,0.781-1.705,0.781c-0.661,0-1.254-0.262-1.776-0.781
		c-0.521-0.52-0.782-1.112-0.782-1.775v-39.781c0-6.156-1.964-11.128-5.896-14.918c-3.928-3.787-8.453-5.682-13.568-5.682
		c-5.398,0-10.109,2.108-14.136,6.322c-4.024,4.216-6.037,8.975-6.037,14.278v39.781c0,1.704-0.804,2.557-2.416,2.557
		c-1.705,0-2.558-0.853-2.558-2.557v-39.781c0-7.008,2.511-13.022,7.53-18.042c5.021-5.02,11.035-7.531,18.042-7.531
		c8.62,0,14.967,3.602,19.038,10.798v-7.529c0-1.61,0.853-2.417,2.558-2.417c1.612,0,2.415,0.807,2.415,2.417v62.084
		C183.866,163.636,183.631,164.229,183.156,164.748z"/>
	<path class="st0" d="M219.042,146.176c0,1.203-0.233,2.323-0.694,3.364c-0.463,1.04-1.088,1.953-1.873,2.739
		c-0.787,0.787-1.711,1.41-2.773,1.873c-1.066,0.464-2.198,0.693-3.4,0.693c-1.203,0-2.348-0.229-3.433-0.693
		c-1.087-0.463-2.024-1.086-2.81-1.873c-0.787-0.786-1.412-1.699-1.873-2.739c-0.463-1.041-0.694-2.161-0.694-3.364
		s0.231-2.322,0.694-3.365c0.461-1.039,1.086-1.953,1.873-2.74c0.786-0.784,1.723-1.409,2.81-1.871
		c1.085-0.463,2.23-0.695,3.433-0.695c1.202,0,2.334,0.232,3.4,0.695c1.063,0.462,1.986,1.087,2.773,1.871
		c0.785,0.787,1.41,1.701,1.873,2.74C218.809,143.854,219.042,144.973,219.042,146.176z"/>
	<path class="st0" d="M237.305,162.973v-62.084c0-1.61,0.805-2.417,2.413-2.417c1.705,0,2.558,0.807,2.558,2.417v7.529
		c4.072-7.197,10.42-10.798,19.039-10.798c7.008,0,13.021,2.512,18.045,7.531c5.017,5.021,7.529,11.034,7.529,18.042v39.781
		c0,1.704-0.854,2.557-2.559,2.557c-1.612,0-2.414-0.853-2.414-2.557v-39.781c0-5.303-2.016-10.062-6.04-14.278
		c-4.028-4.214-8.737-6.322-14.138-6.322c-5.113,0-9.637,1.895-13.565,5.682c-3.933,3.79-5.897,8.762-5.897,14.918v39.781
		c0,0.663-0.26,1.256-0.778,1.775c-0.522,0.521-1.116,0.781-1.778,0.781s-1.229-0.262-1.705-0.781
		C237.538,164.229,237.305,163.636,237.305,162.973z"/>
	<path class="st0" d="M305.068,140.809v-39.78c0-0.661,0.261-1.253,0.782-1.776c0.521-0.519,1.112-0.781,1.774-0.781
		c0.663,0,1.23,0.263,1.705,0.781c0.475,0.523,0.713,1.115,0.713,1.776v39.78c0,5.399,1.987,10.184,5.967,14.351
		c3.979,4.169,8.759,6.251,14.35,6.251c5.491,0,10.227-2.082,14.207-6.251c3.978-4.167,5.967-8.95,5.967-14.351v-39.92
		c0-0.663,0.261-1.23,0.779-1.705c0.521-0.474,1.112-0.711,1.777-0.711c0.66,0,1.23,0.237,1.705,0.711
		c0.473,0.475,0.71,1.042,0.71,1.705v39.92c0,6.819-2.488,12.787-7.46,17.9c-4.973,5.115-10.866,7.673-17.687,7.673
		c-6.917,0-12.859-2.558-17.831-7.673C307.556,153.596,305.068,147.628,305.068,140.809z"/>
	<path class="st0" d="M369.995,157.146c0-0.66,0.212-1.229,0.64-1.705c0.425-0.473,0.873-0.709,1.351-0.709
		c0.473,0,1.183,0.379,2.13,1.136l2.981,2.272c1.139,0.76,2.915,1.492,5.33,2.202c2.414,0.71,5.134,1.065,8.169,1.065
		c5.587,0,9.752-1.088,12.502-3.27c2.745-2.177,4.12-5.018,4.12-8.522c0-4.071-1.231-7.269-3.694-9.591
		c-2.463-2.319-5.447-4-8.949-5.043l-10.516-3.268c-3.505-1.136-6.485-2.958-8.948-5.47c-2.466-2.509-3.695-5.896-3.695-10.158
		c0-4.831,1.798-9.116,5.4-12.857c3.598-3.74,8.807-5.613,15.626-5.613c4.168,0,8.1,0.664,11.792,1.99
		c3.693,1.327,5.542,2.652,5.542,3.978c0,0.568-0.263,1.186-0.782,1.847c-0.521,0.664-1.065,0.995-1.632,0.995
		c-0.1,0-1.73-0.641-4.902-1.919c-3.175-1.278-6.465-1.917-9.875-1.917c-5.494,0-9.567,1.389-12.217,4.166
		c-2.654,2.777-3.979,5.815-3.979,9.108c0,3.39,1.239,6.073,3.718,8.049c2.478,1.979,5.457,3.484,8.938,4.515
		c3.479,1.035,6.985,2.074,10.515,3.12c3.527,1.047,6.518,3.053,8.962,6.02c2.447,2.965,3.671,6.887,3.671,11.765
		c0,5.306-1.896,9.472-5.683,12.503c-3.79,3.032-9.048,4.546-15.771,4.546c-5.872,0-10.796-1.041-14.773-3.127
		C371.984,161.174,369.995,159.136,369.995,157.146z"/>
</g>
</svg>
