<?xml version="1.0" encoding="utf-8"?>
<!-- Generator: Adobe Illustrator 16.0.0, SVG Export Plug-In . SVG Version: 6.00 Build 0)  -->
<!DOCTYPE svg PUBLIC "-//W3C//DTD SVG 1.1//EN" "http://www.w3.org/Graphics/SVG/1.1/DTD/svg11.dtd">
<svg version="1.1" xmlns="http://www.w3.org/2000/svg" xmlns:xlink="http://www.w3.org/1999/xlink" x="0px" y="0px" width="124px"
	 height="124px" viewBox="0 0 124 124" style="enable-background:new 0 0 124 124;" xml:space="preserve">
<style type="text/css">
<![CDATA[
	.st0{fill:#00BFA9;}
	.st1{fill:#DFDFDF;}
]]>
</style>
<g id="Layer_1">
	<g>
		<circle class="st0" cx="27.289" cy="26.5" r="0.5"/>
		<path class="st0" d="M11.5,21.5v81h101v-81H11.5z M27.289,25c0.828,0,1.5,0.672,1.5,1.5s-0.672,1.5-1.5,1.5s-1.5-0.672-1.5-1.5
			S26.461,25,27.289,25z M22.289,25c0.828,0,1.5,0.672,1.5,1.5s-0.672,1.5-1.5,1.5s-1.5-0.672-1.5-1.5S21.461,25,22.289,25z
			 M17.289,25c0.828,0,1.5,0.672,1.5,1.5s-0.672,1.5-1.5,1.5s-1.5-0.672-1.5-1.5S16.461,25,17.289,25z M111.5,101.5h-99V31h99V101.5
			z"/>
	</g>
	<rect x="25.413" y="45.318" class="st1" width="73.174" height="7.219"/>
	<rect x="23.527" y="62.045" class="st1" width="37.473" height="3.019"/>
	<rect x="23.527" y="66.045" class="st1" width="37.473" height="3.019"/>
	<rect x="23.527" y="70.045" class="st1" width="37.473" height="3.019"/>
	<rect x="23.527" y="74.045" class="st1" width="37.473" height="3.019"/>
	<rect x="23.527" y="78.045" class="st1" width="37.473" height="3.019"/>
	<rect x="23.527" y="82.045" class="st1" width="37.473" height="3.019"/>
	<rect x="32.895" y="86.045" class="st1" width="18.737" height="3.019"/>
	<rect x="73.128" y="59.683" class="st1" width="18.279" height="6.362"/>
	<rect x="64.535" y="70.045" class="st1" width="35.465" height="3.019"/>
	<rect x="64.535" y="74.045" class="st1" width="35.465" height="3.019"/>
	<rect x="64.535" y="78.045" class="st1" width="35.465" height="3.019"/>
	<rect x="64.535" y="82.045" class="st1" width="35.465" height="3.019"/>
	<rect x="81.263" y="86.045" class="st1" width="18.737" height="3.019"/>
</g>
<g id="Text_Block">
	<g id="Text_Block_1_">
	</g>
</g>
<g id="Text_Block_2_">
	<g id="Text_Block_3_">
	</g>
</g>
</svg>
